<svg width="32" height="32" fill="none" xmlns="http://www.w3.org/2000/svg"><path d="M29.47 32H2.53A2.53 2.53 0 0 1 0 29.47V2.53C0 1.13 1.13 0 2.53 0h26.94C30.87 0 32 1.13 32 2.53v26.94c0 1.4-1.13 2.53-2.53 2.53zM2.53 1.68a.84.84 0 0 0-.85.85v26.94c0 .47.38.85.85.85h26.94c.47 0 .85-.38.85-.85V2.53a.84.84 0 0 0-.85-.85H2.53z" fill="#fff"/><path d="M10.95 26.95H7.58a.84.84 0 0 1-.84-.84V10.95c0-.47.37-.84.84-.84h3.37c.46 0 .84.37.84.84V26.1c0 .46-.38.84-.84.84zm-2.53-1.69h1.69V11.8H8.42v13.47zM17.68 26.95h-3.36a.84.84 0 0 1-.85-.84V5.89c0-.46.38-.84.85-.84h3.36c.47 0 .85.38.85.84v20.22c0 .46-.38.84-.85.84zm-2.52-1.69h1.68V6.74h-1.68v18.52zM24.42 26.95h-3.37a.84.84 0 0 1-.84-.84v-8.43c0-.46.38-.84.84-.84h3.37c.47 0 .84.38.84.84v8.43c0 .46-.37.84-.84.84zm-2.53-1.69h1.69v-6.73h-1.69v6.73z" fill="#fff"/></svg>