<svg width="32" height="20" fill="none" xmlns="http://www.w3.org/2000/svg"><path d="M25.61 6.42h-.3a4.8 4.8 0 0 0-8.9-3.58A9.61 9.61 0 0 0 0 9.6c0 5.3 4.3 9.6 9.6 9.6h16.01a6.4 6.4 0 0 0 0-12.78zm0 11.18H9.6A8 8 0 1 1 16.15 5V5a.8.8 0 0 0 1.46-.41 3.18 3.18 0 0 1 3.2-3A3.2 3.2 0 0 1 23.11 7a.8.8 0 0 0 .86 1.3 4.8 4.8 0 1 1 1.64 9.3h-.01z" fill="#fff"/><path d="M10.25 12.74A3.2 3.2 0 0 1 6.4 9.6v-.48l.23.24a.8.8 0 0 0 1.14 0 .8.8 0 0 0 0-1.13l-1.6-1.6a.8.8 0 0 0-1.13 0l-1.6 1.6a.8.8 0 0 0 1.13 1.13l.23-.24v.47a4.8 4.8 0 0 0 5.77 4.7.8.8 0 0 0-.32-1.56zM14.63 9.84l-.23.23V9.6a4.8 4.8 0 0 0-5.77-4.7.8.8 0 0 0 .32 1.57A3.2 3.2 0 0 1 12.8 9.6v.47l-.23-.23a.8.8 0 0 0-1.13 1.13l1.6 1.6a.8.8 0 0 0 1.13 0l1.6-1.6a.8.8 0 0 0-1.13-1.13z" fill="#fff"/></svg>