<svg width="32" height="22" fill="none" xmlns="http://www.w3.org/2000/svg"><path d="M31.42 5.1L16.27.04a.85.85 0 0 0-.54 0L.58 5.1a.84.84 0 0 0 0 1.6l4.47 1.48v4.45c0 .22.1.44.25.6.15.14 3.7 3.61 10.7 3.61 2.55 0 4.92-.46 7.06-1.36a.84.84 0 0 0-.65-1.55 16.36 16.36 0 0 1-6.4 1.23c-3.28 0-5.7-.85-7.14-1.56a11.12 11.12 0 0 1-2.13-1.35v-3.5l9 3a.85.85 0 0 0 .53 0l9-3v1.5a2.53 2.53 0 0 0-.19 4.69l-1.48 5.9a.84.84 0 0 0 .82 1.05h3.37a.84.84 0 0 0 .82-1.04l-1.48-5.91a2.53 2.53 0 0 0-.18-4.7V8.19l4.47-1.49a.84.84 0 0 0 0-1.6zm-5.32 6.69a.84.84 0 1 1 0 1.68.84.84 0 0 1 0-1.68zm-.6 8.42l.6-2.42.61 2.42H25.5zm.54-13.5l-9.9-1.65a.84.84 0 1 0-.28 1.66l6.76 1.13-6.62 2.2L3.5 5.9 16 1.73l12.5 4.16-2.46.82z" fill="#fff"/></svg>