<svg width="20" height="22" fill="none" xmlns="http://www.w3.org/2000/svg"><path d="M9.93 20.74h-5.8a2.84 2.84 0 0 1-2.86-2.83V4.1a2.84 2.84 0 0 1 2.86-2.83h5.9a.63.63 0 1 0 0-1.26h-5.9A4.11 4.11 0 0 0 0 4.09V17.9A4.11 4.11 0 0 0 4.13 22h5.8a.63.63 0 1 0 0-1.26z" fill="#7634A8"/><path d="M19.83 10.56l-3.78-3.9a.58.58 0 0 0-.84 0 .63.63 0 0 0 0 .86l2.76 2.86H5.93a.6.6 0 0 0-.6.62c0 .34.27.61.6.61h12.04l-2.76 2.87a.63.63 0 0 0 0 .87c.12.12.27.18.42.18.15 0 .3-.06.42-.18l3.77-3.91a.63.63 0 0 0 0-.88z" fill="#7634A8"/></svg>