<svg width="38" height="39" fill="none" xmlns="http://www.w3.org/2000/svg"><path d="M19.17 39c-.93 0-1.82-.36-2.47-1.01a3.44 3.44 0 0 1-1.03-2.45V24.72c0-3.17-1.28-5.27-4.19-5.27-2.8 0-4.38 2.59-4.38 5.32v10.77c0 .92-.37 1.8-1.03 2.45A3.52 3.52 0 0 1 3.6 39h-.1c-.93 0-1.82-.36-2.48-1.01A3.44 3.44 0 0 1 0 35.54V16.87a3.28 3.28 0 0 1 2.07-3.06c.4-.17.84-.26 1.28-.25h.06a3.37 3.37 0 0 1 3.3 2.73c1.52-2.64 4.33-3.27 6.4-3.27 2.66 0 5.52.97 7.1 4.48 2.16-3.26 4.48-4.53 8.08-4.53 5.08 0 9.71 2.54 9.71 11.5v11.07c0 .92-.37 1.8-1.03 2.45A3.52 3.52 0 0 1 34.5 39h-.15c-.93 0-1.82-.36-2.48-1.01a3.44 3.44 0 0 1-1.02-2.45V24.62c0-3.02-.84-5.02-3.7-5.02-2.8 0-4.05 2.39-4.05 5.12v10.82c0 .92-.37 1.8-1.02 2.45A3.52 3.52 0 0 1 19.6 39h-.44z" fill="#819195"/><path d="M21 11.05l-.97 1.9-2.9-7.06 1.9 7.25-1.76-.88A7.94 7.94 0 0 1 13.7 1.51 2.75 2.75 0 0 1 16.4 0c.36.03.71.12 1.04.29a8.08 8.08 0 0 1 4.03 4.64 7.92 7.92 0 0 1-.46 6.1zM23.87 11.67l-1.48-.2L26.41 8l-4.37 2.86.2-1.33a5.49 5.49 0 0 1 4.12-4.6 5.65 5.65 0 0 1 2.18-.12 1.93 1.93 0 0 1 1.6 1.4c.06.25.08.5.04.74a5.49 5.49 0 0 1-4.13 4.6c-.71.18-1.45.22-2.18.12z" fill="#819195"/></svg>