<svg width="12" height="20" fill="none" xmlns="http://www.w3.org/2000/svg"><path d="M6 20a.5.5 0 0 1-.4-.2c-.05-.06-1.41-1.8-2.8-4.38-.8-1.5-1.45-3-1.92-4.41A16.19 16.19 0 0 1 0 6a6 6 0 0 1 12 0c0 1.54-.3 3.22-.88 5a27.67 27.67 0 0 1-1.93 4.42C7.81 18 6.45 19.74 6.4 19.81A.5.5 0 0 1 6 20zM6 1a5 5 0 0 0-5 5c0 3.25 1.46 6.66 2.69 8.95.9 1.68 1.8 3.02 2.3 3.71.51-.7 1.42-2.04 2.33-3.72C9.54 12.64 11 9.23 11 6a5 5 0 0 0-5-5z" fill="#fff" fill-opacity=".48"/><path d="M6 9a3 3 0 1 1 0-6 3 3 0 0 1 0 6zm0-5a2 2 0 1 0 0 4 2 2 0 0 0 0-4z" fill="#fff" fill-opacity=".48"/></svg>