<svg width="22" height="22" fill="none" xmlns="http://www.w3.org/2000/svg"><circle cx="11" cy="11" r="10.5" fill="#F4F4F4" stroke="#7634A8"/><mask id="a" maskUnits="userSpaceOnUse" x="0" y="0" width="22" height="22"><circle cx="11" cy="11" r="10.5" fill="#F4F4F4" stroke="#7634A8"/></mask><g mask="url(#a)"><path fill-rule="evenodd" clip-rule="evenodd" d="M16.82 20.38c0 1.61-1.42 2.91-3.17 2.91h-5.3c-1.75 0-3.17-1.3-3.17-2.9v-1.95c0-1.37 1.04-2.52 2.44-2.82.95.75 2.12 1.2 3.38 1.2 1.26 0 2.43-.45 3.38-1.2 1.4.3 2.44 1.45 2.44 2.82v1.94zM6.47 10.35C6.47 7.5 8.5 5.18 11 5.18c2.5 0 4.53 2.31 4.53 5.17S13.5 15.53 11 15.53c-2.5 0-4.53-2.32-4.53-5.18zm9.03 4.11a6.9 6.9 0 0 0 1.32-4.1c0-3.58-2.6-6.48-5.82-6.48s-5.82 2.9-5.82 6.47c0 1.56.5 3 1.32 4.11a3.87 3.87 0 0 0-2.62 3.66v2.59a3.88 3.88 0 0 0 3.88 3.88h6.48a3.88 3.88 0 0 0 3.88-3.88v-2.6c0-1.7-1.1-3.12-2.62-3.65z" fill="#7634A8"/></g></svg>